{
  "accessors": [
    {
      "bufferView": 3,
      "componentType": 5126,
      "count": 1992,
      "max": [
        0.9042199850082397,
        1.5127300024032593,
        0.5363900065422058
      ],
      "min": [
        -0.9045699834823608,
        -0.00419999985024333,
        -0.6251099705696106
      ],
      "type": "VEC3"
    },
    {
      "bufferView": 3,
      "byteOffset": 23904,
      "componentType": 5126,
      "count": 1992,
      "max": [
        0.9999661445617676,
        0.9999695420265198,
        1.0
      ],
      "min": [
        -0.9999661445617676,
        -0.9999108910560608,
        -0.9999967813491821
      ],
      "type": "VEC3"
    },
    {
      "bufferView": 2,
      "componentType": 5126,
      "count": 1992,
      "max": [
        0.997189998626709,
        0.9992499947547913
      ],
      "min": [
        0.003379999892786145,
        0.0021899999119341373
      ],
      "type": "VEC2"
    },
    {
      "bufferView": 1,
      "componentType": 5125,
      "count": 7368,
      "type": "SCALAR"
    },
    {
      "bufferView": 5,
      "componentType": 5126,
      "count": 44,
      "max": [
        1.0,
        0.0,
        0.871969997882843,
        0.0,
        0.5735800266265869,
        1.0,
        0.1272200047969818,
        0.0,
        0.7474499940872192,
        0.0,
        1.0,
        0.0,
        0.24935999512672424,
        1.0897300243377686,
        0.38710999488830566,
        1.0
      ],
      "min": [
        0.429610013961792,
        -0.5735800266265869,
        0.0,
        0.0,
        -0.6216800212860107,
        -1.0,
        -1.9999999494757503e-05,
        0.0,
        -2.9999999242136255e-05,
        -0.5415999889373779,
        -1.0,
        0.0,
        -0.24921000003814697,
        -1.3365800380706787,
        -0.5003899931907654,
        1.0
      ],
      "type": "MAT4"
    },
    {
      "bufferView": 0,
      "componentType": 5123,
      "count": 1992,
      "type": "VEC4"
    },
    {
      "bufferView": 4,
      "componentType": 5126,
      "count": 1992,
      "max": [
        1.0,
        0.49994999170303345,
        0.3057800233364105,
        0.14953148365020752
      ],
      "min": [
        0.3476700186729431,
        0.0,
        0.0,
        0.0
      ],
      "type": "VEC4"
    }
  ],
  "asset": {
    "extras": {
      "author": "Poyo20 (https://sketchfab.com/poyo20)",
      "license": "CC-BY-4.0 (http://creativecommons.org/licenses/by/4.0/)",
      "source": "https://sketchfab.com/3d-models/red-rigged-934206963a864f7b885ed248ee009232",
      "title": "Red (Rigged)"
    },
    "generator": "Sketchfab-11.33.0",
    "version": "2.0"
  },
  "bufferViews": [
    {
      "buffer": 0,
      "byteLength": 15936,
      "byteStride": 8,
      "name": "shortBufferViews",
      "target": 34962
    },
    {
      "buffer": 0,
      "byteLength": 29472,
      "byteOffset": 15936,
      "name": "floatBufferViews",
      "target": 34963
    },
    {
      "buffer": 0,
      "byteLength": 15936,
      "byteOffset": 45408,
      "byteStride": 8,
      "name": "floatBufferViews",
      "target": 34962
    },
    {
      "buffer": 0,
      "byteLength": 47808,
      "byteOffset": 61344,
      "byteStride": 12,
      "name": "floatBufferViews",
      "target": 34962
    },
    {
      "buffer": 0,
      "byteLength": 31872,
      "byteOffset": 109152,
      "byteStride": 16,
      "name": "floatBufferViews",
      "target": 34962
    },
    {
      "buffer": 0,
      "byteLength": 2816,
      "byteOffset": 141024,
      "byteStride": 64,
      "name": "floatBufferViews"
    }
  ],
  "buffers": [
    {
      "byteLength": 143840,
      "uri": "scene.bin"
    }
  ],
  "extensionsRequired": [
    "KHR_materials_pbrSpecularGlossiness"
  ],
  "extensionsUsed": [
    "KHR_materials_pbrSpecularGlossiness"
  ],
  "images": [
    {
      "uri": "textures/RedMat_diffuse.png"
    }
  ],
  "materials": [
    {
      "doubleSided": true,
      "extensions": {
        "KHR_materials_pbrSpecularGlossiness": {
          "diffuseFactor": [
            1.0,
            1.0,
            1.0,
            1.0
          ],
          "diffuseTexture": {
            "index": 0
          },
          "glossinessFactor": 0.6882011199678967,
          "specularFactor": [
            0.0,
            0.0,
            0.0
          ]
        }
      },
      "name": "RedMat"
    }
  ],
  "meshes": [
    {
      "name": "RedGeo_0",
      "primitives": [
        {
          "attributes": {
            "JOINTS_0": 5,
            "NORMAL": 1,
            "POSITION": 0,
            "TEXCOORD_0": 2,
            "WEIGHTS_0": 6
          },
          "indices": 3,
          "material": 0,
          "mode": 4
        }
      ]
    }
  ],
  "nodes": [
    {
      "children": [
        1
      ],
      "matrix": [
        1.0,
        0.0,
        0.0,
        0.0,
        0.0,
        2.220446049250313e-16,
        -1.0,
        0.0,
        0.0,
        1.0,
        2.220446049250313e-16,
        0.0,
        0.0,
        0.0,
        0.0,
        1.0
      ],
      "name": "Sketchfab_model"
    },
    {
      "children": [
        2
      ],
      "name": "Root"
    },
    {
      "children": [
        3,
        48,
        47
      ],
      "matrix": [
        1.47025,
        0.0,
        0.0,
        0.0,
        0.0,
        -0.0,
        1.47025,
        0.0,
        0.0,
        -1.47025,
        -0.0,
        0.0,
        0.0,
        0.0,
        0.0,
        1.0
      ],
      "name": "Armature"
    },
    {
      "children": [
        4
      ],
      "name": "Armature_rootJoint"
    },
    {
      "children": [
        5,
        46
      ],
      "name": "Red_Armature",
      "rotation": [
        0.0,
        0.0,
        0.0,
        1.0
      ],
      "scale": [
        1.0,
        1.0,
        1.0
      ],
      "translation": [
        0.0,
        0.0,
        0.0
      ]
    },
    {
      "children": [
        6
      ],
      "name": "RedReference_Armature",
      "rotation": [
        0.0,
        0.0,
        0.0,
        1.0
      ],
      "scale": [
        1.0,
        1.0,
        1.0
      ],
      "translation": [
        0.0,
        0.0,
        0.0
      ]
    },
    {
      "children": [
        7,
        12,
        17,
        44
      ],
      "name": "RedHips_Armature",
      "rotation": [
        0.0,
        0.0,
        0.0,
        1.0
      ],
      "scale": [
        1.0,
        1.0,
        1.0
      ],
      "translation": [
        0.0,
        0.3686400055885315,
        0.031380001455545425
      ]
    },
    {
      "children": [
        8
      ],
      "name": "RedLeftUpLeg_Armature",
      "rotation": [
        1.0,
        0.0,
        0.0,
        0.0
      ],
      "scale": [
        1.0,
        1.0,
        1.0
      ],
      "translation": [
        0.210549995303154,
        0.00812000036239624,
        -0.006209999788552523
      ]
    },
    {
      "children": [
        9
      ],
      "name": "RedLeftLeg_Armature",
      "rotation": [
        0.0,
        0.0,
        0.0,
        1.0
      ],
      "scale": [
        1.0,
        1.0,
        1.0
      ],
      "translation": [
        0.0013699999544769526,
        0.1683499962091446,
        -0.04854999855160713
      ]
    },
    {
      "children": [
        10,
        11
      ],
      "name": "RedLeftFoot_Armature",
      "rotation": [
        0.0,
        0.0,
        0.0,
        1.0
      ],
      "scale": [
        1.0,
        1.0,
        1.0
      ],
      "translation": [
        0.0006399999838322401,
        0.14208999276161194,
        0.022779999300837517
      ]
    },
    {
      "name": "RedLeftHeel_Armature",
      "rotation": [
        0.0,
        0.0,
        0.0,
        1.0
      ],
      "scale": [
        1.0,
        1.0,
        1.0
      ],
      "translation": [
        -7.999999797903001e-05,
        0.03855999931693077,
        0.03711000084877014
      ]
    },
    {
      "name": "RedLeftToeBase_Armature",
      "rotation": [
        0.0,
        0.0,
        0.0,
        1.0
      ],
      "scale": [
        1.0,
        1.0,
        1.0
      ],
      "translation": [
        0.0002099999983329326,
        0.03513000160455704,
        -0.054420001804828644
      ]
    },
    {
      "children": [
        13
      ],
      "name": "RedRightUpLeg_Armature",
      "rotation": [
        0.0,
        0.0,
        0.0,
        1.0
      ],
      "scale": [
        1.0,
        1.0,
        1.0
      ],
      "translation": [
        -0.210549995303154,
        0.00812000036239624,
        -0.006209999788552523
      ]
    },
    {
      "children": [
        14
      ],
      "name": "RedRightLeg_Armature",
      "rotation": [
        0.0,
        0.0,
        0.0,
        1.0
      ],
      "scale": [
        1.0,
        1.0,
        1.0
      ],
      "translation": [
        -0.0013699999544769526,
        -0.1683499962091446,
        0.04854999855160713
      ]
    },
    {
      "children": [
        15,
        16
      ],
      "name": "RedRightFoot_Armature",
      "rotation": [
        0.0,
        0.0,
        0.0,
        1.0
      ],
      "scale": [
        1.0,
        1.0,
        1.0
      ],
      "translation": [
        -0.0006399999838322401,
        -0.14208999276161194,
        -0.022779999300837517
      ]
    },
    {
      "name": "RedRightHeel_Armature",
      "rotation": [
        0.0,
        0.0,
        0.0,
        1.0
      ],
      "scale": [
        1.0,
        1.0,
        1.0
      ],
      "translation": [
        9.000000136438757e-05,
        -0.03855999931693077,
        -0.03711000084877014
      ]
    },
    {
      "name": "RedRightToeBase_Armature",
      "rotation": [
        0.0,
        0.0,
        0.0,
        1.0
      ],
      "scale": [
        1.0,
        1.0,
        1.0
      ],
      "translation": [
        -0.0002099999983329326,
        -0.03513000160455704,
        0.054420001804828644
      ]
    },
    {
      "children": [
        18
      ],
      "name": "RedSpine_Armature",
      "rotation": [
        0.0,
        0.0,
        0.0,
        1.0
      ],
      "scale": [
        1.0,
        1.0,
        1.0
      ],
      "translation": [
        0.0,
        0.05578000098466873,
        -7.000000186963007e-05
      ]
    },
    {
      "children": [
        19,
        28,
        35
      ],
      "name": "RedSpine1_Armature",
      "rotation": [
        0.0,
        0.0,
        0.0,
        1.0
      ],
      "scale": [
        1.0,
        1.0,
        1.0
      ],
      "translation": [
        -9.000000136438757e-05,
        0.3079800009727478,
        0.034929998219013214
      ]
    },
    {
      "children": [
        20
      ],
      "name": "RedLeftShoulder_Armature",
      "rotation": [
        1.0,
        0.0,
        0.0,
        0.0
      ],
      "scale": [
        1.0,
        1.0,
        1.0
      ],
      "translation": [
        0.05555000156164169,
        0.024170000106096268,
        0.0
      ]
    },
    {
      "children": [
        21
      ],
      "name": "RedLeftArm_Armature",
      "rotation": [
        0.0,
        0.0,
        0.30070775747299194,
        0.9537163376808167
      ],
      "scale": [
        1.0000003576278687,
        1.0000003576278687,
        1.0
      ],
      "translation": [
        0.28464001417160034,
        0.0,
        0.0
      ]
    },
    {
      "children": [
        22
      ],
      "name": "RedLeftForeArm_Armature",
      "rotation": [
        0.0,
        0.0,
        0.0,
        1.0
      ],
      "scale": [
        1.0,
        1.0,
        1.0
      ],
      "translation": [
        0.1403300017118454,
        -0.09826000034809113,
        0.0
      ]
    },
    {
      "children": [
        23,
        24,
        26
      ],
      "name": "RedLeftHand_Armature",
      "rotation": [
        0.0,
        0.0,
        0.0,
        1.0
      ],
      "scale": [
        1.0,
        1.0,
        1.0
      ],
      "translation": [
        0.10914000123739243,
        -0.07489000260829926,
        -0.005150000099092722
      ]
    },
    {
      "name": "RedLeftAttach_Armature",
      "rotation": [
        0.0,
        0.0,
        0.0,
        1.0
      ],
      "scale": [
        1.0,
        1.0,
        1.0
      ],
      "translation": [
        0.07147999852895737,
        0.027049999684095383,
        -0.005009999964386225
      ]
    },
    {
      "children": [
        25
      ],
      "name": "RedLeftHandMiddle1_Armature",
      "rotation": [
        0.0,
        0.0,
        0.0,
        1.0
      ],
      "scale": [
        1.0,
        1.0,
        1.0
      ],
      "translation": [
        0.11356999725103378,
        -0.07451999932527542,
        -0.01689000055193901
      ]
    },
    {
      "name": "RedLeftHandMiddle2_Armature",
      "rotation": [
        0.0,
        1.4999999621068127e-05,
        0.0,
        1.0
      ],
      "scale": [
        1.0,
        1.0,
        1.0
      ],
      "translation": [
        0.041510000824928284,
        -0.027240000665187836,
        -0.006169999949634075
      ]
    },
    {
      "children": [
        27
      ],
      "name": "RedLeftHandThumb1_Armature",
      "rotation": [
        0.2795610725879669,
        0.4209820628166199,
        -0.03869842737913132,
        0.8620454668998718
      ],
      "scale": [
        1.0000001192092896,
        1.000006079673767,
        0.9999948143959045
      ],
      "translation": [
        0.04019999876618385,
        0.007160000037401915,
        -0.13075000047683716
      ]
    },
    {
      "name": "RedLeftHandThumb2_Armature",
      "rotation": [
        -0.009806975722312927,
        -0.11043760180473328,
        0.07945280522108078,
        0.9906536340713501
      ],
      "scale": [
        1.000002384185791,
        0.9999938607215881,
        0.9999949932098389
      ],
      "translation": [
        0.040950000286102295,
        0.013969999738037586,
        0.027410000562667847
      ]
    },
    {
      "children": [
        29
      ],
      "name": "RedNeck_Armature",
      "rotation": [
        0.0,
        0.0,
        0.0,
        1.0
      ],
      "scale": [
        1.0,
        1.0,
        1.0
      ],
      "translation": [
        0.0,
        0.053040001541376114,
        0.0
      ]
    },
    {
      "children": [
        30,
        32,
        33,
        34
      ],
      "name": "RedHead_Armature",
      "rotation": [
        0.0,
        0.0,
        0.0,
        1.0
      ],
      "scale": [
        1.0,
        1.0,
        1.0
      ],
      "translation": [
        0.0,
        0.07142999768257141,
        0.0
      ]
    },
    {
      "children": [
        31
      ],
      "name": "Rig_HeadFeathers01_Armature",
      "rotation": [
        0.0,
        0.0,
        0.0,
        1.0
      ],
      "scale": [
        1.0,
        1.0,
        1.0
      ],
      "translation": [
        -0.02037999965250492,
        0.3721599876880646,
        0.06441999971866608
      ]
    },
    {
      "name": "Rig_HeadFeathers02_Armature",
      "rotation": [
        0.0,
        0.0,
        0.0,
        1.0
      ],
      "scale": [
        1.0,
        1.0,
        1.0
      ],
      "translation": [
        0.0,
        0.10756000131368637,
        -0.09290999919176102
      ]
    },
    {
      "name": "Rig_LEye_Armature",
      "rotation": [
        0.0,
        0.0,
        0.0,
        1.0
      ],
      "scale": [
        1.0,
        1.0,
        1.0
      ],
      "translation": [
        0.0733100026845932,
        0.06603000313043594,
        0.15996000170707703
      ]
    },
    {
      "name": "Rig_LowerJaw_Armature",
      "rotation": [
        0.0,
        0.0,
        0.0,
        1.0
      ],
      "scale": [
        1.0,
        1.0,
        1.0
      ],
      "translation": [
        0.00023999999393709004,
        -0.06334999948740005,
        0.313289999961853
      ]
    },
    {
      "name": "Rig_REye_Armature",
      "rotation": [
        0.0,
        0.0,
        0.0,
        1.0
      ],
      "scale": [
        1.0,
        1.0,
        1.0
      ],
      "translation": [
        -0.0733100026845932,
        0.06603000313043594,
        0.15996000170707703
      ]
    },
    {
      "children": [
        36
      ],
      "name": "RedRightShoulder_Armature",
      "rotation": [
        0.0,
        0.0,
        0.0,
        1.0
      ],
      "scale": [
        1.0,
        1.0,
        1.0
      ],
      "translation": [
        -0.05555000156164169,
        0.024170000106096268,
        0.0
      ]
    },
    {
      "children": [
        37
      ],
      "name": "RedRightArm_Armature",
      "rotation": [
        0.0,
        0.0,
        0.30070775747299194,
        0.9537163376808167
      ],
      "scale": [
        1.0000003576278687,
        1.0000003576278687,
        1.0
      ],
      "translation": [
        -0.28464001417160034,
        0.0,
        0.0
      ]
    },
    {
      "children": [
        38
      ],
      "name": "RedRightForeArm_Armature",
      "rotation": [
        0.0,
        0.0,
        0.0,
        1.0
      ],
      "scale": [
        1.0,
        1.0,
        1.0
      ],
      "translation": [
        -0.1403300017118454,
        0.09826000034809113,
        0.0
      ]
    },
    {
      "children": [
        39,
        40,
        42
      ],
      "name": "RedRightHand_Armature",
      "rotation": [
        0.0,
        0.0,
        0.0,
        1.0
      ],
      "scale": [
        1.0,
        1.0,
        1.0
      ],
      "translation": [
        -0.10914000123739243,
        0.07489000260829926,
        0.005150000099092722
      ]
    },
    {
      "name": "RedRightAttach_Armature",
      "rotation": [
        0.0,
        0.0,
        0.0,
        1.0
      ],
      "scale": [
        1.0,
        1.0,
        1.0
      ],
      "translation": [
        -0.07147999852895737,
        -0.027049999684095383,
        0.005009999964386225
      ]
    },
    {
      "children": [
        41
      ],
      "name": "RedRightHandMiddle1_Armature",
      "rotation": [
        0.0,
        0.0,
        0.0,
        1.0
      ],
      "scale": [
        1.0,
        1.0,
        1.0
      ],
      "translation": [
        -0.11356999725103378,
        0.07451999932527542,
        0.01689000055193901
      ]
    },
    {
      "name": "RedRightHandMiddle2_Armature",
      "rotation": [
        0.0,
        1.4999999621068127e-05,
        0.0,
        1.0
      ],
      "scale": [
        1.0,
        1.0,
        1.0
      ],
      "translation": [
        -0.041510000824928284,
        0.027240000665187836,
        0.006169999949634075
      ]
    },
    {
      "children": [
        43
      ],
      "name": "RedRightHandThumb1_Armature",
      "rotation": [
        0.0,
        0.0,
        0.0,
        1.0
      ],
      "scale": [
        1.0,
        1.0,
        1.0
      ],
      "translation": [
        -0.04019000008702278,
        -0.007160000037401915,
        0.13075000047683716
      ]
    },
    {
      "name": "RedRightHandThumb2_Armature",
      "rotation": [
        0.0,
        0.0,
        0.0,
        1.0
      ],
      "scale": [
        1.0,
        1.0,
        1.0
      ],
      "translation": [
        -0.04983000084757805,
        -0.004550000187009573,
        0.01092000026255846
      ]
    },
    {
      "children": [
        45
      ],
      "name": "Rig_Tail01_Armature",
      "rotation": [
        0.0,
        0.0,
        0.0,
        1.0
      ],
      "scale": [
        1.0,
        1.0,
        1.0
      ],
      "translation": [
        9.999999747378752e-06,
        -0.07506000250577927,
        -0.3489600121974945
      ]
    },
    {
      "name": "Rig_Tail02_Armature",
      "rotation": [
        0.0,
        0.0,
        0.0,
        1.0
      ],
      "scale": [
        1.0,
        1.0,
        1.0
      ],
      "translation": [
        0.0,
        -0.005690000019967556,
        -0.06953000277280807
      ]
    },
    {
      "name": "Wind_Colliders_Armature",
      "rotation": [
        0.0,
        0.0,
        0.0,
        1.0
      ],
      "scale": [
        1.0,
        1.0,
        1.0
      ],
      "translation": [
        0.0,
        0.0,
        0.0
      ]
    },
    {
      "name": "RedGeo"
    },
    {
      "mesh": 0,
      "name": "RedGeo_0",
      "skin": 0
    }
  ],
  "samplers": [
    {
      "magFilter": 9729,
      "minFilter": 9987,
      "wrapS": 10497,
      "wrapT": 10497
    }
  ],
  "scene": 0,
  "scenes": [
    {
      "name": "Sketchfab_Scene",
      "nodes": [
        0
      ]
    }
  ],
  "skins": [
    {
      "inverseBindMatrices": 4,
      "joints": [
        3,
        4,
        5,
        6,
        7,
        8,
        9,
        10,
        11,
        12,
        13,
        14,
        15,
        16,
        17,
        18,
        19,
        20,
        21,
        22,
        23,
        24,
        25,
        26,
        27,
        28,
        29,
        30,
        31,
        32,
        33,
        34,
        35,
        36,
        37,
        38,
        39,
        40,
        41,
        42,
        43,
        44,
        45,
        46
      ],
      "skeleton": 3
    }
  ],
  "textures": [
    {
      "sampler": 0,
      "source": 0
    }
  ]
}
