<svg width="30" height="30" viewBox="0 0 30 30" fill="none" xmlns="http://www.w3.org/2000/svg">
<g clip-path="url(#clip0)">
<path d="M7.85496 24.7975C7.44871 24.4762 7.38121 23.8862 7.70246 23.48C8.69371 22.23 10.2575 20.735 9.16121 18.5437C8.97996 18.1825 9.05121 17.7462 9.33746 17.4612L11.6 15.1987C12.3275 14.4712 12.3925 13.3287 11.7962 12.5262L5.32371 18.5C4.94246 18.85 4.35121 18.8275 3.99871 18.4475C3.64746 18.0662 3.67121 17.4737 4.05121 17.1225L10.76 10.93C11.3787 10.3587 12.3287 10.3787 12.925 10.975C13.6662 11.7162 14.0737 12.7012 14.0737 13.75C14.0737 14.7987 13.665 15.7837 12.925 16.525L11.1062 18.3437C12.1212 21.3 10.3612 23.1425 9.17246 24.645C8.84871 25.0525 8.25996 25.1175 7.85496 24.7975V24.7975Z" fill="#888"/>
<path d="M10.9375 30H0.9375C0.42 30 0 29.58 0 29.0625V19.14C0 16.5612 1.155 14.16 3.17 12.5487L6.1025 10.205C6.5075 9.88249 7.09875 9.94749 7.42 10.3525C7.7425 10.7575 7.6775 11.3462 7.2725 11.67L4.34 14.0137C2.77375 15.2662 1.875 17.135 1.875 19.14V28.125H10V26.565C10 26.0475 10.42 25.6275 10.9375 25.6275C12.1437 25.6275 13.125 24.6463 13.125 23.44V20.625C13.125 20.1075 13.545 19.6875 14.0625 19.6875C14.58 19.6875 15 20.1075 15 20.625V23.44C15 25.3575 13.665 26.9688 11.875 27.3938V29.0625C11.875 29.58 11.455 30 10.9375 30Z" fill="#888"/>
<path d="M15 6.25H9.375C7.65 6.25 6.25 7.65 6.25 9.375V16.375L8.75 14.0625V9.375C8.75 9.025 9.025 8.75 9.375 8.75H15V6.25Z" fill="#888"/>
<path d="M25 14.7187V15.3125C25 16.6875 26.125 17.8125 27.5 17.8125V18.125C27.5 18.475 27.225 18.75 26.875 18.75H10.25C10.3875 19.1625 10.45 19.6 10.45 20.0375C10.45 20.45 10.3875 20.85 10.275 21.25H26.875C28.6 21.25 30 19.85 30 18.125V12.9775L25 14.7187Z" fill="#888"/>
<path d="M23.75 0L30 2.78875L23.75 5.5775L17.5 2.78875L23.75 0Z" fill="#888"/>
<path d="M25 7.0725V11.8937L30 9.66375V4.84125L25 7.0725Z" fill="#888"/>
<path d="M22.5 7.0725L17.5 4.84125V9.66375L22.5 11.8937V7.0725Z" fill="#888"/>
</g>
<defs>
<clipPath id="clip0">
<rect width="30" height="30" />
</clipPath>
</defs>
</svg>
