<svg width="30" height="30" viewBox="0 0 30 30" fill="none" xmlns="http://www.w3.org/2000/svg">
<path d="M29.1212 21.2112C28.6357 21.2112 28.2423 21.6045 28.2423 22.09C28.2423 25.4826 25.4827 28.2423 22.09 28.2423C21.6045 28.2423 21.2112 28.6356 21.2112 29.1211C21.2112 29.3639 21.3095 29.5836 21.4685 29.7426C21.6275 29.9016 21.8472 30 22.09 30C26.4513 30 30 26.4513 30 22.09C30 21.6045 29.6067 21.2112 29.1212 21.2112Z" fill="#888"/>
<path d="M25.6059 21.2112C25.121 21.2106 24.7271 21.6045 24.7271 22.09C24.7265 23.5436 23.5436 24.7265 22.09 24.727C21.6045 24.727 21.2106 25.1209 21.2112 25.6059C21.2112 25.8486 21.3095 26.0684 21.4685 26.2273C21.6275 26.3863 21.8472 26.4847 22.09 26.4847C24.5122 26.4841 26.4841 24.5122 26.4847 22.09C26.4847 21.6045 26.0915 21.2112 25.6059 21.2112Z" fill="#888"/>
<path d="M7.90992 1.75764C8.39549 1.75764 8.78877 1.36436 8.78877 0.878789C8.78871 0.393281 8.39543 0 7.90992 0C3.54861 0 0 3.54861 0 7.90992C0 8.15273 0.0983203 8.3724 0.257344 8.53143C0.416367 8.69039 0.636035 8.78877 0.878848 8.78877C1.36436 8.78877 1.75764 8.39549 1.75764 7.90992C1.75764 4.51723 4.51728 1.75764 7.90992 1.75764Z" fill="#888"/>
<path d="M7.90991 5.27284C8.39547 5.27284 8.78934 4.87897 8.78875 4.39399C8.78875 3.90848 8.39547 3.5152 7.90991 3.5152C5.4877 3.51578 3.51584 5.48764 3.51526 7.90985C3.51526 8.15266 3.61358 8.37233 3.7726 8.53136C3.93163 8.69032 4.15129 8.7887 4.39405 8.7887C4.87897 8.78929 5.2729 8.39542 5.2729 7.90985C5.27348 6.45637 6.45631 5.27348 7.90991 5.27284Z" fill="#888"/>
<path d="M24.3415 20.4675L26.2969 18.5121L29.4574 15.3515C29.9795 14.8295 29.9796 14.0092 29.4574 13.4871C28.9479 12.9775 28.115 12.965 27.593 13.4871L22.9152 18.1648C22.5743 18.5057 22.0215 18.5057 21.6806 18.1648L21.6723 18.1565C21.3313 17.8155 21.3313 17.2628 21.6723 16.9218L27.593 11.0011C28.115 10.4791 28.1151 9.65875 27.593 9.13668C27.0834 8.62709 26.2505 8.61467 25.7285 9.13668L19.8079 15.0574C19.4669 15.3983 18.9141 15.3983 18.5732 15.0574L18.5649 15.0491C18.224 14.7082 18.224 14.1554 18.5649 13.8144L25.7286 6.65077C26.2506 6.12875 26.2507 5.30844 25.7286 4.7863C25.219 4.27671 24.3861 4.26429 23.8641 4.7863L16.7005 11.95C16.3595 12.2909 15.8068 12.2909 15.4658 11.95C15.1203 11.6044 15.1203 11.0442 15.4658 10.6987L21.3782 4.78625C21.9002 4.26423 21.9003 3.44391 21.3782 2.92184C20.8686 2.41225 20.0357 2.39983 19.5137 2.92184L10.1372 12.2866L10.1322 7.87562C10.131 6.88298 9.33775 6.07889 8.34511 6.07889C7.42425 6.07889 6.65215 6.77434 6.55618 7.69017L5.39367 18.7821C5.36888 19.0555 5.45578 19.3165 5.64228 19.503L12.3667 26.2275C12.5656 26.4264 12.8267 26.5134 13.1001 26.4885C16.9781 25.9913 20.62 24.189 23.3794 21.4296L24.3415 20.4675Z" fill="#888"/>
</svg>
