<svg height="512pt" viewBox="0 -64 512.01547 512" width="512pt" xmlns="http://www.w3.org/2000/svg"><path d="m503.457031 144.890625h-90.214843c-.84375 0-1.679688.035156-2.507813.074219-.8125.042968-2.015625.113281-2.363281.011718l-104.175782-28.425781 42.4375-42.4375c4.988282-4.992187 9.980469-9.984375 14.972657-14.976562 3.492187-3.488281 7.03125-6.925781 10.472656-10.46875 4.207031-4.328125 8.515625-7.945313 10.792969-13.765625 1.035156-2.636719 1.640625-5.433594 1.765625-8.257813.992187-22.871093-27.398438-35.542969-43.613281-19.328125l-93.796876 93.796875-41.386718-11.1875c-30.386719-8.6875-62.695313-3.34375-88.679688 14.636719l-41.972656 29.054688c-21.839844 15.121093-34.230469 40.976562-32.34375 67.472656.042969.574218.144531 1.144531.300781 1.699218l18.257813 64.9375c1.300781 4.617188 3.75 8.765626 6.921875 12.28125l-14.992188 15-25.234375 25.234376c-.621094.621093-1.152344 1.339843-1.550781 2.132812l-25.601563 49.742188c-1.699218 3.292968-1.066406 7.3125 1.554688 9.941406 1.636719 1.636718 3.820312 2.5 6.039062 2.5 1.324219 0 2.664063-.308594 3.902344-.949219l49.730469-25.597656c.75-.386719 1.441406-.890625 2.046875-1.46875l27.070312-26.335938c.664063-.648437 1.109376-1.449219 1.527344-2.25 0 0 32.628906-32.632812 32.851563-32.554687 6.554687 2.320312 13.519531 3.523437 20.4375 2.363281 6.902343-1.152344 13.550781-3.191406 20.609375-3.492187 27.699218-1.140626 54.6875.316406 80.210937 4.386718 15.019531 2.40625 34.449219 6.171875 51.585938 14.027344l2.378906 1.09375c9.867187 4.546875 20.0625 9.257812 32.417969 10.410156 2.375.222656 4.753906.332032 7.152344.332032 8.082031 0 16.308593-1.253907 24.535156-3.746094 15.171875-4.589844 30.027344-13.15625 42.988281-24.777344 4.257813-3.839844 9.285156-6.042969 13.808594-6.042969h81.6875c4.710937 0 8.535156-3.824219 8.535156-8.535156v-128c-.027344-4.710937-3.847656-8.53125-8.558594-8.53125zm-338.21875 77.285156c-.417969.019531-.835937.035157-1.246093.050781-2.875.113282-5.683594.273438-8.429688.5625-2.398438.257813-4.710938.609376-6.9375 1.058594l167.832031-167.832031 12.066407 12.066406-153.984376 153.984375c-.316406 0-.582031.007813-.894531.007813-2.9375-.007813-5.734375.023437-8.40625.101562zm42.546875-9.214843 12.332032 8.40625c-2.21875.261718-4.96875.503906-8.363282.691406l-1.511718.082031c-3.824219.242187-7.832032.230469-11.84375.214844zm-92.46875-6.9375c1.078125-8.378907 6.582032-16.382813 12.820313-18.46875.125-.039063.246093-.082032.363281-.132813l18.03125-6.972656c5.691406-1.914063 11.828125-1.085938 16.761719 2.210937l1.414062.960938-46.199219 46.199218zm-30.734375 106-12.792969-11.347657 38.792969-38.792969c-.179687.851563-.324219 1.671876-.476562 2.5-.703125 3.832032-1.1875 7.6875-1.476563 11.570313-.273437 3.558594-.929687 7.277344 1.109375 10.480469.058594.085937.074219.195312.136719.28125zm0 0"/></svg>