{
    "asset": {
        "version": "2.0",
        "generator": "Open Asset Import Library (assimp v5.0.5eb040c7)"
    },
    "accessors": [
        {
            "bufferView": 0,
            "byteOffset": 0,
            "componentType": 5126,
            "count": 74457,
            "type": "VEC3",
            "max": [
                4.071949005126953,
                12.557479858398438,
                4.384706974029541
            ],
            "min": [
                -4.071949005126953,
                0.0,
                -4.384706974029541
            ]
        },
        {
            "bufferView": 1,
            "byteOffset": 0,
            "componentType": 5126,
            "count": 74457,
            "type": "VEC3",
            "max": [
                0.9999880194664002,
                0.9999373555183411,
                0.9998887777328491
            ],
            "min": [
                -0.9999939799308777,
                -0.9999356269836426,
                -0.9998602271080017
            ]
        },
        {
            "bufferView": 2,
            "byteOffset": 0,
            "componentType": 5126,
            "count": 74457,
            "type": "VEC2",
            "max": [
                0.9898430109024048,
                0.9801340103149414
            ],
            "min": [
                0.006930999923497438,
                0.1083800196647644
            ]
        },
        {
            "bufferView": 3,
            "byteOffset": 0,
            "componentType": 5125,
            "count": 412149,
            "type": "SCALAR",
            "max": [
                74456
            ],
            "min": [
                0
            ]
        }
    ],
    "buffers": [
        {
            "byteLength": 4031220,
            "uri": "result.bin"
        }
    ],
    "bufferViews": [
        {
            "buffer": 0,
            "byteOffset": 0,
            "byteLength": 893484,
            "target": 34962
        },
        {
            "buffer": 0,
            "byteOffset": 893484,
            "byteLength": 893484,
            "target": 34962
        },
        {
            "buffer": 0,
            "byteOffset": 1786968,
            "byteLength": 595656,
            "target": 34962
        },
        {
            "buffer": 0,
            "byteOffset": 2382624,
            "byteLength": 1648596,
            "target": 34963
        }
    ],
    "materials": [
        {
            "name": "DefaultMaterial",
            "pbrMetallicRoughness": {
                "baseColorFactor": [
                    0.6000000238418579,
                    0.6000000238418579,
                    0.6000000238418579,
                    1.0
                ],
                "metallicFactor": 0.0
            }
        },
        {
            "name": "human_heart_1124_MatSG",
            "pbrMetallicRoughness": {
                "baseColorFactor": [
                    0.6000000238418579,
                    0.6000000238418579,
                    0.6000000238418579,
                    1.0
                ],
                "metallicFactor": 0.0
            }
        }
    ],
    "meshes": [
        {
            "name": "human_heart_1124",
            "primitives": [
                {
                    "mode": 4,
                    "material": 1,
                    "indices": 3,
                    "attributes": {
                        "POSITION": 0,
                        "NORMAL": 1,
                        "TEXCOORD_0": 2
                    }
                }
            ]
        }
    ],
    "nodes": [
        {
            "name": "input.obj",
            "children": [
                1,
                2
            ]
        },
        {
            "name": "default"
        },
        {
            "name": "human_heart_1124",
            "mesh": 0
        }
    ],
    "scenes": [
        {
            "nodes": [
                0
            ]
        }
    ],
    "scene": 0
}